# xmcd
#
# Track frame offsets: 
#        150
#        13849
#        24550
#        37829
#        54574
#        75193
#        100932
#        112705
#        127046
#        144923
#        160483
#        173535
#        190619
#        200720
#        218266
#        230404
#        245999
#
# Disc length: 3418 seconds
#
# Revision: 0
# Processed by: cddbd v1.5.2PL0 Copyright (c) Steve Scherf et al.
# Submitted via: ExactAudioCopy v0.95b3
#
DISCID=d40d5811
DTITLE=Hollies  - Confessions Of The Mind 1970  FLAC
DYEAR=1900
DGENRE=
TTITLE0=Survival Of The Fittest
TTITLE1=Man Without Heart
TTITLE2=Little Girl
TTITLE3=Isn't It Nice?
TTITLE4=Perfect Lady Housewife
TTITLE5=Confessions Of A Mind
TTITLE6=Lady Please
TTITLE7=Frightened Lady
TTITLE8=Too Young To Be Married
TTITLE9=Separated
TTITLE10=I Wanna Shout
TTITLE11=I Can't Tell The Bottom From The Top - bonus track
TTITLE12=Mad Professor Blyth - bonus track
TTITLE13=Gasoline Alley Bread - bonus track
TTITLE14=Dandelion Wine - bonus track
TTITLE15=Hey Willy - bonus track
TTITLE16=Row The Boat Together - bonus track
EXTD=
EXTT0=
EXTT1=
EXTT2=
EXTT3=
EXTT4=
EXTT5=
EXTT6=
EXTT7=
EXTT8=
EXTT9=
EXTT10=
EXTT11=
EXTT12=
EXTT13=
EXTT14=
EXTT15=
EXTT16=
PLAYORDER=
